<?xml version="1.0" encoding="UTF-8"?>
<svg xmlns="http://www.w3.org/2000/svg" xmlns:xlink="http://www.w3.org/1999/xlink" width="94.679" height="96.751" viewBox="0 0 94.679 96.751">
<path fill="none" stroke-width="2.1918" stroke-linecap="round" stroke-linejoin="round" stroke="rgb(0%, 0%, 0%)" stroke-opacity="1" stroke-miterlimit="10" d="M -38.500954 0.443828 L -4.738434 -3.702996 L -0.59161 30.059523 L -34.358049 34.206348 Z M -38.500954 0.443828 " transform="matrix(0.996621, 0, 0, -0.996621, 45.113049, 48.250922)"/>
<path fill="none" stroke-width="2.1918" stroke-linecap="round" stroke-linejoin="round" stroke="rgb(0%, 0%, 0%)" stroke-opacity="1" stroke-miterlimit="10" d="M -34.358049 34.206348 L -24.880713 41.610271 L 8.885726 37.467366 L -0.59161 30.059523 " transform="matrix(0.996621, 0, 0, -0.996621, 45.113049, 48.250922)"/>
<path fill="none" stroke-width="2.1918" stroke-linecap="round" stroke-linejoin="round" stroke="rgb(0%, 0%, 0%)" stroke-opacity="1" stroke-miterlimit="10" d="M -4.738434 -3.702996 L 29.024085 -7.845901 L 33.170909 25.916618 L -0.59161 30.059523 Z M -4.738434 -3.702996 " transform="matrix(0.996621, 0, 0, -0.996621, 45.113049, 48.250922)"/>
<path fill="none" stroke-width="2.1918" stroke-linecap="round" stroke-linejoin="round" stroke="rgb(0%, 0%, 0%)" stroke-opacity="1" stroke-miterlimit="10" d="M -0.59161 30.059523 L 8.885726 37.467366 L 42.648245 33.320542 L 33.170909 25.916618 " transform="matrix(0.996621, 0, 0, -0.996621, 45.113049, 48.250922)"/>
<path fill="none" stroke-width="2.1918" stroke-linecap="round" stroke-linejoin="round" stroke="rgb(0%, 0%, 0%)" stroke-opacity="1" stroke-miterlimit="10" d="M 29.024085 -7.845901 L 38.501421 -0.441977 L 42.648245 33.320542 " transform="matrix(0.996621, 0, 0, -0.996621, 45.113049, 48.250922)"/>
<path fill="none" stroke-width="2.1918" stroke-linecap="round" stroke-linejoin="round" stroke="rgb(0%, 0%, 0%)" stroke-opacity="1" stroke-miterlimit="10" d="M -8.885259 -37.465515 L 24.87726 -41.61234 L 29.024085 -7.845901 L -4.738434 -3.702996 Z M -8.885259 -37.465515 " transform="matrix(0.996621, 0, 0, -0.996621, 45.113049, 48.250922)"/>
<path fill="none" stroke-width="2.1918" stroke-linecap="round" stroke-linejoin="round" stroke="rgb(0%, 0%, 0%)" stroke-opacity="1" stroke-miterlimit="10" d="M 24.87726 -41.61234 L 34.354596 -34.208416 L 38.501421 -0.441977 L 29.024085 -7.845901 " transform="matrix(0.996621, 0, 0, -0.996621, 45.113049, 48.250922)"/>
<path fill="none" stroke-width="2.1918" stroke-linecap="round" stroke-linejoin="round" stroke="rgb(0%, 0%, 0%)" stroke-opacity="1" stroke-miterlimit="10" d="M 24.87726 -41.61234 L -4.738434 -3.702996 " transform="matrix(0.996621, 0, 0, -0.996621, 45.113049, 48.250922)"/>
<path fill="none" stroke-width="2.1918" stroke-linecap="round" stroke-linejoin="round" stroke="rgb(0%, 0%, 0%)" stroke-opacity="1" stroke-miterlimit="10" d="M 24.87726 -41.61234 L 38.501421 -0.441977 " transform="matrix(0.996621, 0, 0, -0.996621, 45.113049, 48.250922)"/>
</svg>
