<?xml version="1.0" encoding="UTF-8"?>
<svg xmlns="http://www.w3.org/2000/svg" xmlns:xlink="http://www.w3.org/1999/xlink" width="63.159" height="65.994" viewBox="0 0 63.159 65.994">
<path fill="none" stroke-width="0.79701" stroke-linecap="round" stroke-linejoin="round" stroke="rgb(0%, 0%, 0%)" stroke-opacity="1" stroke-miterlimit="10" d="M -25.510981 19.840696 L 25.511043 19.840696 " transform="matrix(0.986859, 0, 0, -0.986859, 31.164032, 32.994039)"/>
<path fill="none" stroke-width="0.79701" stroke-linecap="round" stroke-linejoin="round" stroke="rgb(0%, 0%, 0%)" stroke-opacity="1" stroke-miterlimit="10" d="M -22.676864 12.755403 L -22.676864 26.929947 " transform="matrix(0.986859, 0, 0, -0.986859, 31.164032, 32.994039)"/>
<path fill="none" stroke-width="0.79701" stroke-linecap="round" stroke-linejoin="round" stroke="rgb(0%, 0%, 0%)" stroke-opacity="1" stroke-miterlimit="10" d="M -8.502321 12.755403 L -8.502321 26.929947 " transform="matrix(0.986859, 0, 0, -0.986859, 31.164032, 32.994039)"/>
<path fill="none" stroke-width="0.79701" stroke-linecap="round" stroke-linejoin="round" stroke="rgb(0%, 0%, 0%)" stroke-opacity="1" stroke-miterlimit="10" d="M 17.008691 12.755403 L 17.008691 26.929947 " transform="matrix(0.986859, 0, 0, -0.986859, 31.164032, 32.994039)"/>
<path fill="none" stroke-width="0.79701" stroke-linecap="round" stroke-linejoin="round" stroke="rgb(0%, 0%, 0%)" stroke-opacity="1" stroke-miterlimit="10" d="M 0.0000307003 8.504228 L 0.0000307003 -2.665993 " transform="matrix(0.986859, 0, 0, -0.986859, 31.164032, 32.994039)"/>
<path fill-rule="nonzero" fill="rgb(0%, 0%, 0%)" fill-opacity="1" stroke-width="0.79701" stroke-linecap="round" stroke-linejoin="miter" stroke="rgb(0%, 0%, 0%)" stroke-opacity="1" stroke-miterlimit="10" d="M 4.195523 0.0000307003 C 3.680949 0.126695 1.416822 0.855016 -0.000236602 1.646669 L -0.000236602 -1.646607 C 1.416822 -0.854954 3.680949 -0.126634 4.195523 0.0000307003 Z M 4.195523 0.0000307003 " transform="matrix(0, 0.986859, 0.986859, 0, 31.164032, 35.625233)"/>
<path fill="none" stroke-width="0.79701" stroke-linecap="round" stroke-linejoin="round" stroke="rgb(0%, 0%, 0%)" stroke-opacity="1" stroke-miterlimit="10" d="M -25.510981 -19.840901 L 25.511043 -19.840901 " transform="matrix(0.986859, 0, 0, -0.986859, 31.164032, 32.994039)"/>
<path fill="none" stroke-width="0.79701" stroke-linecap="round" stroke-linejoin="round" stroke="rgb(0%, 0%, 0%)" stroke-opacity="1" stroke-miterlimit="10" d="M -22.676864 -26.930152 L -22.676864 -12.755608 " transform="matrix(0.986859, 0, 0, -0.986859, 31.164032, 32.994039)"/>
<path fill="none" stroke-width="0.79701" stroke-linecap="round" stroke-linejoin="round" stroke="rgb(0%, 0%, 0%)" stroke-opacity="1" stroke-miterlimit="10" d="M -8.502321 -26.930152 L -8.502321 -12.755608 " transform="matrix(0.986859, 0, 0, -0.986859, 31.164032, 32.994039)"/>
<path fill="none" stroke-width="0.79701" stroke-linecap="round" stroke-linejoin="round" stroke="rgb(0%, 0%, 0%)" stroke-opacity="1" stroke-miterlimit="10" d="M 5.668265 -26.930152 L 5.668265 -12.755608 " transform="matrix(0.986859, 0, 0, -0.986859, 31.164032, 32.994039)"/>
</svg>
